<svg width="24" height="25" viewBox="0 0 24 25" fill="none" xmlns="http://www.w3.org/2000/svg">
<path d="M19 15.4166C19 15.9618 18.8127 16.4847 18.4793 16.8701C18.1459 17.2556 17.6937 17.4722 17.2222 17.4722H6.55556L3 21.5833V5.13887C3 4.5937 3.1873 4.07086 3.5207 3.68537C3.8541 3.29988 4.30628 3.08331 4.77778 3.08331H17.2222C17.6937 3.08331 18.1459 3.29988 18.4793 3.68537C18.8127 4.07086 19 4.5937 19 5.13887V15.4166Z" fill="white"/>
<path d="M19 15.4166C19 15.9618 18.8127 16.4847 18.4793 16.8701C18.1459 17.2556 17.6937 17.4722 17.2222 17.4722H6.55556L3 21.5833V5.13887C3 4.5937 3.1873 4.07086 3.5207 3.68537C3.8541 3.29988 4.30628 3.08331 4.77778 3.08331H17.2222C17.6937 3.08331 18.1459 3.29988 18.4793 3.68537C18.8127 4.07086 19 4.5937 19 5.13887V15.4166Z" fill="white"/>
<path d="M19 15.4166C19 15.9618 18.8127 16.4847 18.4793 16.8701C18.1459 17.2556 17.6937 17.4722 17.2222 17.4722H6.55556L3 21.5833V5.13887C3 4.5937 3.1873 4.07086 3.5207 3.68537C3.8541 3.29988 4.30628 3.08331 4.77778 3.08331H17.2222C17.6937 3.08331 18.1459 3.29988 18.4793 3.68537C18.8127 4.07086 19 4.5937 19 5.13887V15.4166Z" stroke="white" stroke-width="2" stroke-linecap="round" stroke-linejoin="round"/>
<path d="M19 15.4166C19 15.9618 18.8127 16.4847 18.4793 16.8701C18.1459 17.2556 17.6937 17.4722 17.2222 17.4722H6.55556L3 21.5833V5.13887C3 4.5937 3.1873 4.07086 3.5207 3.68537C3.8541 3.29988 4.30628 3.08331 4.77778 3.08331H17.2222C17.6937 3.08331 18.1459 3.29988 18.4793 3.68537C18.8127 4.07086 19 4.5937 19 5.13887V15.4166Z" stroke="white" stroke-width="2" stroke-linecap="round" stroke-linejoin="round"/>
</svg>
