<svg width="25" height="24" viewBox="0 0 25 24" fill="none" xmlns="http://www.w3.org/2000/svg">
<g id="Turn Dark Mode">
<g id="moon">
<path id="Vector" d="M21.4729 12.79C21.3156 14.4922 20.6768 16.1144 19.6312 17.4668C18.5856 18.8192 17.1764 19.8458 15.5686 20.4265C13.9608 21.0073 12.2209 21.1181 10.5524 20.7461C8.88394 20.3741 7.35592 19.5345 6.14715 18.3258C4.93838 17.117 4.09886 15.589 3.72683 13.9205C3.3548 12.252 3.46564 10.5121 4.04638 8.9043C4.62713 7.29651 5.65375 5.88737 7.00614 4.84175C8.35852 3.79614 9.98072 3.15731 11.6829 3C10.6863 4.34827 10.2068 6.00945 10.3315 7.68141C10.4561 9.35338 11.1768 10.9251 12.3623 12.1106C13.5479 13.2961 15.1195 14.0168 16.7915 14.1415C18.4635 14.2662 20.1247 13.7866 21.4729 12.79V12.79Z" stroke="#464646" stroke-width="2" stroke-linecap="round" stroke-linejoin="round"/>
</g>
</g>
</svg>
