<?xml version="1.0" encoding="utf-8"?>
<!-- Svg Vector Icons : http://www.onlinewebfonts.com/icon -->
<!DOCTYPE svg PUBLIC "-//W3C//DTD SVG 1.1//EN" "http://www.w3.org/Graphics/SVG/1.1/DTD/svg11.dtd">
<svg version="1.1" xmlns="http://www.w3.org/2000/svg" xmlns:xlink="http://www.w3.org/1999/xlink" x="0px" y="0px" viewBox="0 0 1000 1000" enable-background="new 0 0 1000 1000" xml:space="preserve">
<metadata> Svg Vector Icons : http://www.onlinewebfonts.com/icon </metadata>
<g><path d="M225.5,284.4v430.9H81.7C42.1,715.4,10,683,10,644.2V355.6c0-39.3,31.8-71.2,71.7-71.2L225.5,284.4L225.5,284.4z M796.4,423.7L694.8,322.1c-20.9-20.9-55.1-21-76.1,0c-21.2,21.2-21.1,55.1,0,76.1l101.6,101.6L618.6,601.5c-20.9,20.9-21,55.1,0,76.1c21.2,21.2,55.1,21.1,76.1,0l101.6-101.6L898,677.7c20.9,20.9,55.1,21,76.1,0c21.2-21.2,21.1-55.1,0-76.1L872.6,499.9l101.6-101.6c20.9-20.9,21-55.1,0-76.1c-21.2-21.2-55.1-21.1-76.1,0L796.4,423.7L796.4,423.7z M455.3,112.1c31.7-23.8,57.4-10.4,57.4,28.9v717.8c0,39.8-25.5,52.9-57.4,28.9L225.5,715.4V284.4L455.3,112.1z" fill="#FAFAFA"/></g>
</svg>
